<svg xmlns="http://www.w3.org/2000/svg" viewBox="0 0 512 512" fill="none">
<!-- Tail + lower body + belly legs -->
<path fill="#ea580c" d="
M147.990646,274.829712
C136.939758,278.385590 125.560043,279.268799 113.104706,279.018250
C104.876076,278.689728 97.582359,278.345673 90.288185,278.011658
C87.242355,277.872192 85.522659,278.787689 84.937851,282.324188
C82.149841,299.184296 79.682556,316.139709 75.843208,332.770813
C72.550491,347.034058 67.506500,360.870239 56.817406,371.743622
C53.893982,374.717468 55.612869,376.242676 58.696003,377.460358
C73.002731,383.110901 88.099564,384.023529 103.187996,384.993896
C113.449059,385.653839 123.735161,386.020447 133.970352,386.953644
C141.056305,387.599701 148.074570,388.988068 155.123062,390.044739
C163.310043,395.758484 172.081741,400.813629 179.496979,407.396667
C185.315201,412.561890 190.109726,419.034515 191.137619,427.660278
C192.310593,437.503662 188.345032,444.354065 180.241547,448.867188
C168.175400,455.587311 154.970306,456.455292 141.679169,454.176483
C133.609970,452.793060 125.761223,450.123749 117.194855,447.815430
C114.619812,446.351471 112.747978,444.939819 110.694046,443.881683
C85.365738,430.833069 68.255371,410.327850 56.671181,384.718964
C55.142128,381.338715 53.026596,378.223785 51.182682,374.985962
C48.982456,367.371399 46.316833,359.854462 44.693619,352.118835
C42.392612,341.153046 40.316525,330.082642 39.157417,318.951477
C38.080837,308.612793 38.245518,298.137360 38.055958,287.718658
C38.002811,284.797455 38.990967,281.847687 38.860699,278.939728
C38.649281,274.220276 39.295807,269.629730 37.746246,264.698273
C36.434334,260.523132 37.653942,254.874634 39.394661,250.536819
C46.523159,232.772781 56.150314,216.477188 68.598999,201.748962
C87.276909,179.650894 110.380020,163.870590 136.409256,151.868652
C144.757904,148.019119 154.360611,149.475327 156.027603,160.912949
C160.364029,182.728210 164.168213,203.722900 162.136322,225.429825
C160.688034,240.902115 157.388474,255.606537 149.621674,269.183746
C148.676483,270.836060 148.515228,272.936798 147.990646,274.829712
z"/>
<!-- Head + upper body + antenna area -->
<path fill="#ea580c" d="
M262.149536,341.990356
C261.097809,326.765808 260.081268,311.538727 258.974030,296.318237
C258.618073,291.425354 258.022797,286.549896 257.492065,281.214569
C251.334579,280.112000 244.852432,278.951263 238.344971,277.169617
C250.225739,268.788910 257.325256,257.772797 260.503571,244.035187
C267.459930,213.967850 263.595490,184.217606 257.901764,154.528549
C257.719727,153.579285 256.582031,152.813293 255.889847,151.961868
C266.081329,149.577255 276.415222,147.669830 286.426788,144.682281
C297.887695,141.262238 308.873505,136.169037 320.413239,133.116531
C332.462219,129.929321 344.872162,127.947243 357.226440,126.134003
C364.541840,125.060326 372.099854,124.650230 379.469879,125.136803
C396.731384,126.276413 413.780304,129.125885 428.939240,138.104553
C438.898621,144.003525 438.488129,160.299911 429.100525,167.072845
C422.303284,171.976868 415.287598,176.961426 409.808350,183.178360
C405.950745,187.555389 404.163391,193.934158 402.054749,199.641922
C396.007507,216.011017 387.777863,231.013489 375.094788,243.775742
C373.637421,241.874573 372.405762,240.038605 372.095795,238.058350
C371.567322,234.682465 370.011780,232.884369 366.566620,233.095108
C362.917419,233.318298 361.507904,235.869888 362.115540,238.933456
C363.067627,243.733658 364.703033,248.398346 366.049011,253.120422
C357.702515,261.008759 348.012268,266.914856 337.354889,270.881409
C327.721863,274.466705 317.695648,276.995667 307.288208,279.671692
C306.477386,277.551819 305.989563,275.748535 306.006500,273.950012
C306.068359,267.377167 297.464539,256.311066 291.540649,255.871246
C292.194702,263.935760 292.811157,271.964081 293.504181,279.985809
C294.660614,293.370850 294.001495,306.676910 285.372253,317.572174
C278.426758,326.341553 269.947998,333.896545 262.149536,341.990356
z"/>
<!-- Middle body section -->
<path fill="#ea580c" d="
M219.965225,272.116791
C213.562546,273.103760 207.160080,274.092163 200.757141,275.077423
C189.824051,276.759705 178.964142,279.126953 167.759949,277.090057
C164.380829,276.475739 160.819183,276.865448 157.401703,276.246735
C163.277924,270.855682 168.217621,265.378906 171.129471,258.213898
C180.256943,235.754578 179.790070,212.418304 177.429916,188.958649
C176.250366,177.233963 174.462204,165.570526 172.949310,153.879379
C189.464752,146.554504 205.986618,139.244034 222.493271,131.899384
C232.545471,127.426659 238.477753,130.140869 241.296402,140.728195
C242.376907,144.786758 243.113708,148.936844 244.049469,153.872681
C245.777710,167.211533 247.567764,179.709961 249.123917,192.237473
C251.196472,208.921997 250.546753,225.513992 245.758743,241.686203
C242.144897,253.892517 235.794220,264.209808 223.267624,269.394257
C222.007156,269.915955 221.058548,271.191223 219.965225,272.116791
z"/>
<!-- Belly underbody -->
<path fill="#ea580c" d="
M155.523865,390.007996
C148.074570,388.988068 141.056305,387.599701 133.970352,386.953644
C123.735161,386.020447 113.449059,385.653839 103.187996,384.993896
C88.099564,384.023529 73.002731,383.110901 58.696003,377.460358
C55.612869,376.242676 53.893982,374.717468 56.817406,371.743622
C67.506500,360.870239 72.550491,347.034058 75.843208,332.770813
C79.682556,316.139709 82.149841,299.184296 84.937851,282.324188
C85.522659,278.787689 87.242355,277.872192 90.288185,278.011658
C97.582359,278.345673 104.876076,278.689728 112.645416,279.039856
C110.794807,308.744568 101.597298,335.491486 79.324371,357.255188
C78.720718,358.031921 78.554031,358.370392 78.387337,358.708862
C78.947136,358.497223 79.506943,358.285614 80.066742,358.074036
C87.773628,355.178070 95.454475,352.210419 103.192680,349.400696
C120.483231,343.122620 138.279724,338.534393 156.471863,336.212555
C172.443222,334.174194 188.632309,333.582794 204.454269,338.050873
C211.288345,339.980774 217.843506,342.696960 220.953064,349.774017
C223.031967,354.505371 219.997009,362.372650 215.672455,365.808899
C201.778412,376.848999 185.814102,383.206512 168.675262,387.014374
C164.416321,387.960602 160.174423,388.983582 155.523865,390.007996
z"/>
<!-- Antenna arc -->
<path fill="#ea580c" d="
M366.376373,253.179810
C364.703033,248.398346 363.067627,243.733658 362.115540,238.933456
C361.507904,235.869888 362.917419,233.318298 366.566620,233.095108
C370.011780,232.884369 371.567322,234.682465 372.095795,238.058350
C372.405762,240.038605 373.637421,241.874573 374.792297,243.915741
C376.189972,245.606720 376.903076,247.729141 378.365479,248.616211
C388.599915,254.824310 399.648102,256.007843 411.450134,254.389191
C422.244354,252.908798 431.915344,249.016235 440.719391,242.986328
C455.141144,233.108841 462.896271,219.117065 465.015991,201.838104
C468.693695,171.858856 458.382324,145.893051 441.449036,122.175217
C430.968842,107.495949 417.452667,95.634270 402.673370,85.276978
C378.250488,68.161499 351.145874,56.987774 322.277710,50.334915
C309.761078,47.450367 296.781403,46.398521 283.952423,45.106159
C275.081696,44.212540 266.075592,43.681496 257.188568,44.135456
C238.742584,45.077705 220.275909,46.913952 202.685745,52.857536
C187.654877,57.936352 172.370728,62.961231 158.404541,70.303764
C143.822403,77.970108 130.513718,88.140388 116.987465,97.696098
C110.977013,101.942223 105.655525,107.215813 100.296432,112.312317
C97.030739,115.418007 94.365059,113.904350 92.243179,111.546898
C90.071495,109.134117 90.074554,106.136871 92.814003,103.718719
C101.699059,95.875740 109.928886,87.072815 119.637505,80.432838
C133.292496,71.093826 147.699921,62.688118 162.419373,55.115223
C180.247955,45.942734 199.578674,40.903290 219.238907,36.850311
C241.504120,32.260307 263.985504,32.153233 286.366882,33.266678
C310.501740,34.467346 334.089905,39.861443 356.788574,48.413479
C380.244843,57.250950 402.025208,68.985405 421.618988,84.912048
C440.101624,99.935493 454.911072,117.708237 465.431915,138.973785
C475.417542,159.157547 479.111633,180.828217 476.809387,203.028152
C473.419952,235.711365 449.502625,259.283569 417.811951,265.010864
C406.625854,267.032501 395.496277,267.223083 384.468048,264.011292
C377.585022,262.006714 371.444977,258.776154 366.376373,253.179810
z"/>
<!-- Claw assembly (shifted up to close gap with body) -->
<g transform="translate(0, -18)">
<!-- Front claw -->
<path fill="#ea580c" d="
M339.895691,337.963928
C349.926483,331.406982 361.010223,328.795868 372.906708,327.867126
C395.294373,326.119415 416.562927,330.734253 437.367554,338.077759
C451.484314,343.060577 465.040222,349.334442 475.345947,360.656921
C452.579742,360.971100 431.288422,366.071259 411.220184,375.529175
C384.690704,388.032196 366.073364,410.247498 370.988129,441.836365
C360.160126,440.715698 349.834686,437.905853 340.293152,432.015808
C340.571472,430.050903 340.967010,428.754395 340.968658,427.457397
C341.004486,399.208344 341.014191,370.959259 340.949860,342.710327
C340.946259,341.127380 340.262756,339.546021 339.895691,337.963928
z"/>
<!-- Claw tip (offset for visible gap) -->
<g transform="translate(14, 10)">
<path fill="#ea580c" d="
M371.452515,441.908813
C366.073364,410.247498 384.690704,388.032196 411.220184,375.529175
C431.288422,366.071259 452.579742,360.971100 475.379700,360.990295
C476.717621,378.377411 471.727325,393.696228 460.454865,407.147125
C446.107544,424.267090 427.305328,433.489014 406.228088,439.001740
C394.956757,441.949768 383.472198,442.350708 371.452515,441.908813
z"/>
</g>
<!-- Lower claw arm -->
<path fill="#ea580c" d="
M304.112030,340.949219
C312.750000,339.649506 321.365753,337.725708 330.563049,340.550720
C330.992676,370.665985 330.991119,400.252899 330.989563,429.839783
C315.950775,431.957458 301.512939,429.852478 287.997742,422.947205
C272.941711,415.254608 263.430786,403.200439 262.213135,385.984589
C261.862122,381.021729 263.985748,375.883789 265.222046,370.242126
C266.003967,369.028900 266.646240,368.462708 267.057343,367.761078
C273.538544,356.698547 282.866089,349.050690 294.810059,344.516205
C297.914642,343.337524 301.011597,342.138733 304.112030,340.949219
z"/>
</g>
<!-- Tail curl -->
<path fill="#ea580c" d="
M51.104424,375.427368
C53.026596,378.223785 55.142128,381.338715 56.671181,384.718964
C68.255371,410.327850 85.365738,430.833069 110.694046,443.881683
C112.747978,444.939819 114.619812,446.351471 116.810913,447.848602
C120.534393,453.586823 121.466255,459.597809 121.040817,466.004669
C120.622643,472.302185 113.791046,479.764099 105.994667,480.823517
C94.419464,482.396423 83.943344,479.580017 75.003067,471.568848
C61.277802,459.269958 54.574074,443.292938 52.229324,425.679657
C50.427116,412.141815 50.587109,398.334961 50.067730,384.640411
C49.957455,381.732849 50.684757,378.793488 51.104424,375.427368
z"/>
<!-- Eye -->
<circle cx="369" cy="162" r="12" fill="#fafaf9"/>
</svg>
